<svg width="15" height="13" viewBox="0 0 15 13" xmlns="http://www.w3.org/2000/svg"><title>icn-heart</title><path d="M0 4.077c0-1.124.405-2.084 1.214-2.881C2.024.399 2.978 0 4.077 0c1.377 0 2.482.574 3.315 1.721.387-.531.861-.95 1.423-1.259A3.59 3.59 0 0 1 10.563 0c1.136 0 2.099.396 2.89 1.187.791.791 1.187 1.754 1.187 2.89 0 1.558-.501 2.838-1.504 3.84-.362.375-.975.889-1.839 1.541a77.994 77.994 0 0 1-2.4 1.748c-.737.514-1.112.777-1.124.789-.217.108-.368.163-.453.163-.085 0-.236-.055-.453-.163a44.616 44.616 0 0 0-1.132-.807A86.565 86.565 0 0 1 3.343 9.44c-.864-.652-1.477-1.16-1.84-1.522C.502 6.915 0 5.635 0 4.077z" fill="#FCA84E" fill-rule="evenodd"/></svg>