<svg width="18" height="15" viewBox="0 0 18 15" xmlns="http://www.w3.org/2000/svg"><title>icn-stack</title><path d="M.226 6.719l8.625 3.75a.368.368 0 0 0 .298 0l8.625-3.75a.374.374 0 1 0-.298-.688L9 9.717.525 6.03a.376.376 0 0 0-.299.688zm17.25 1.562L9 11.967.525 8.28a.376.376 0 0 0-.299.688l8.625 3.75a.367.367 0 0 0 .298 0l8.625-3.75a.374.374 0 1 0-.298-.688zm0 2.25L9 14.217.525 10.531a.376.376 0 0 0-.299.688l8.625 3.75a.367.367 0 0 0 .298 0l8.625-3.75a.374.374 0 1 0-.298-.688zM.226 4.47l8.625 3.75a.368.368 0 0 0 .298 0l8.625-3.75a.375.375 0 0 0 0-.688L9.15.031a.375.375 0 0 0-.298 0L.226 3.78a.375.375 0 0 0 0 .688z" fill="#FCA84E" fill-rule="evenodd"/></svg>