<svg width="92" height="71" viewBox="0 0 92 71" xmlns="http://www.w3.org/2000/svg"><title>icn-quote</title><path d="M49.966 47.859c0 13.846 8.127 22.876 21.07 22.876 12.04 0 20.167-8.127 20.167-20.167 0-11.137-6.622-18.06-18.361-18.662C74.949 19.866 79.765 9.933 89.397 0H76.454C58.695 16.254 49.966 31.906 49.966 47.859zM0 47.859c0 13.846 8.127 22.876 20.769 22.876 12.04 0 20.468-8.127 20.468-20.167 0-11.137-6.923-18.06-18.662-18.662C24.983 19.565 29.799 10.234 39.431 0H26.187C8.729 16.254 0 31.906 0 47.859z" fill="#DEDEDE" fill-rule="evenodd"/></svg>