<?xml version="1.0" encoding="UTF-8" standalone="no"?>
<svg width="18px" height="14px" viewBox="0 0 18 14" version="1.1" xmlns="http://www.w3.org/2000/svg" xmlns:xlink="http://www.w3.org/1999/xlink" xmlns:sketch="http://www.bohemiancoding.com/sketch/ns">
    <!-- Generator: Sketch 3.5.1 (25234) - http://www.bohemiancoding.com/sketch -->
    <title>icn-list</title>
    <desc>Created with Sketch.</desc>
    <defs></defs>
    <g id="App" stroke="none" stroke-width="1" fill="none" fill-rule="evenodd" sketch:type="MSPage">
        <g id="Projekte-1a" sketch:type="MSArtboardGroup" transform="translate(-188.000000, -99.000000)" fill="#000000">
            <g id="Group-Copy" sketch:type="MSLayerGroup" transform="translate(170.000000, 80.000000)">
                <path d="M18,20 C18,19.4477153 18.4449463,19 18.9933977,19 L35.0066023,19 C35.5552407,19 36,19.4438648 36,20 C36,20.5522847 35.5550537,21 35.0066023,21 L18.9933977,21 C18.4447593,21 18,20.5561352 18,20 Z M18,26 C18,25.4477153 18.4499488,25 19.0068455,25 L30.9931545,25 C31.5492199,25 32,25.4438648 32,26 C32,26.5522847 31.5500512,27 30.9931545,27 L19.0068455,27 C18.4507801,27 18,26.5561352 18,26 Z M18,32 C18,31.4477153 18.4446309,31 19.0008717,31 L32.9991283,31 C33.5518945,31 34,31.4438648 34,32 C34,32.5522847 33.5553691,33 32.9991283,33 L19.0008717,33 C18.4481055,33 18,32.5561352 18,32 Z" id="icn-list" sketch:type="MSShapeGroup"></path>
            </g>
        </g>
    </g>
</svg>