<?xml version="1.0" encoding="UTF-8" standalone="no"?>
<svg width="18px" height="15px" viewBox="0 0 18 15" version="1.1" xmlns="http://www.w3.org/2000/svg" xmlns:xlink="http://www.w3.org/1999/xlink" xmlns:sketch="http://www.bohemiancoding.com/sketch/ns">
    <!-- Generator: Sketch 3.5.1 (25234) - http://www.bohemiancoding.com/sketch -->
    <title>icn-stack</title>
    <desc>Created with Sketch.</desc>
    <defs></defs>
    <g id="App" stroke="none" stroke-width="1" fill="none" fill-rule="evenodd" sketch:type="MSPage">
        <g id="Projekte-1a" sketch:type="MSArtboardGroup" transform="translate(-188.000000, -147.000000)" fill="#FCA84E">
            <g id="Group-Copy" sketch:type="MSLayerGroup" transform="translate(170.000000, 80.000000)">
                <path d="M18.2261373,73.7189395 L26.8509494,77.4690801 C26.8981983,77.4900809 26.9491972,77.5005813 27.0001961,77.5005813 C27.051195,77.5005813 27.1021939,77.4900809 27.1494429,77.4690801 L35.7742549,73.7189395 C35.9640008,73.6371864 36.0517489,73.4151781 35.9685007,73.225421 C35.8860025,73.0364139 35.6662573,72.9486606 35.4757614,73.0311637 L27.0001961,76.7168019 L18.5246308,73.0311637 C18.333385,72.9486606 18.1143898,73.0364139 18.0311416,73.225421 C17.9486434,73.4151781 18.0356415,73.6371864 18.2261373,73.7189395 Z M35.4757614,75.281248 L27.0001961,78.9668863 L18.5246308,75.281248 C18.333385,75.198745 18.1143898,75.2864982 18.0311416,75.4755053 C17.9486434,75.6652624 18.0356415,75.8872708 18.2261373,75.9690238 L26.8509494,79.7191645 C26.8981983,79.7401653 26.9491972,79.7499156 27.0001961,79.7499156 C27.051195,79.7499156 27.1021939,79.7401653 27.1494429,79.7191645 L35.7742549,75.9690238 C35.9640008,75.8872708 36.0517489,75.6652624 35.9685007,75.4755053 C35.8860025,75.2864982 35.6662573,75.198745 35.4757614,75.281248 Z M35.4757614,77.5313324 L27.0001961,81.2169706 L18.5246308,77.5313324 C18.333385,77.4488293 18.1143898,77.5365826 18.0311416,77.7255897 C17.9486434,77.9153468 18.0356415,78.1373552 18.2261373,78.2191082 L26.8509494,81.9692488 C26.8981983,81.9902496 26.9491972,82 27.0001961,82 C27.051195,82 27.1021939,81.9902496 27.1494429,81.9692488 L35.7742549,78.2191082 C35.9640008,78.1373552 36.0517489,77.9153468 35.9685007,77.7255897 C35.8860025,77.5365826 35.6662573,77.4488293 35.4757614,77.5313324 Z M18.2261373,71.4688551 L26.8509494,75.2189957 C26.8981983,75.2399965 26.9491972,75.2504969 27.0001961,75.2504969 C27.051195,75.2504969 27.1021939,75.2399965 27.1494429,75.2189957 L35.7742549,71.4688551 C35.9115019,71.4088528 36,71.2745978 36,71.1253422 C36,70.9753366 35.9115019,70.8410815 35.7742549,70.7810793 L27.1494429,67.0309387 C27.0541949,66.9896871 26.9461973,66.9896871 26.8509494,67.0309387 L18.2261373,70.7810793 C18.0888903,70.8410815 18.0003922,70.9753366 18.0003922,71.1253422 C18.0003922,71.2745978 18.0888903,71.4088528 18.2261373,71.4688551 Z" id="icn-stack" sketch:type="MSShapeGroup"></path>
            </g>
        </g>
    </g>
</svg>