<?xml version="1.0" encoding="UTF-8" standalone="no"?>
<svg width="14px" height="24px" viewBox="0 0 14 24" version="1.1" xmlns="http://www.w3.org/2000/svg" xmlns:xlink="http://www.w3.org/1999/xlink" xmlns:sketch="http://www.bohemiancoding.com/sketch/ns">
    <!-- Generator: Sketch 3.4.4 (17249) - http://www.bohemiancoding.com/sketch -->
    <title>icn-arrow-next</title>
    <desc>Created with Sketch.</desc>
    <defs></defs>
    <g id="Page-1" stroke="none" stroke-width="1" fill="none" fill-rule="evenodd" sketch:type="MSPage">
        <g id="YSCTW-Desktop-1a" sketch:type="MSArtboardGroup" transform="translate(-1306.000000, -1383.000000)" fill="#363636">
            <g id="Group" sketch:type="MSLayerGroup" transform="translate(0.000000, 1145.000000)">
                <g id="Page-1" transform="translate(1306.000000, 237.000000)" sketch:type="MSShapeGroup">
                    <path d="M13.2605431,12.23 L1.85326325,1.23 C1.48699436,0.877 0.940194818,0.932 0.631209683,1.356 C0.324828355,1.78 0.371696887,2.41 0.739701655,2.766 L11.3519524,12.998 L0.739701655,23.23 C0.371696887,23.585 0.323960419,24.2160002 0.631209683,24.6390003 C0.80219303,24.8750003 1.04955473,24.9970003 1.29778436,24.9970003 C1.49480578,24.9970003 1.69095926,24.9200003 1.85413119,24.7650003 L13.2614111,13.765 C13.4601683,13.574 13.573,13.293 13.573,12.997 C13.573,12.701 13.4584325,12.421 13.2605431,12.23 L13.2605431,12.23 Z" id="icn-arrow-next"></path>
                </g>
            </g>
        </g>
    </g>
</svg>