<?xml version="1.0" encoding="UTF-8" standalone="no"?>
<svg width="15px" height="13px" viewBox="0 0 15 13" version="1.1" xmlns="http://www.w3.org/2000/svg" xmlns:xlink="http://www.w3.org/1999/xlink" xmlns:sketch="http://www.bohemiancoding.com/sketch/ns">
    <!-- Generator: Sketch 3.4.4 (17249) - http://www.bohemiancoding.com/sketch -->
    <title>icn-heart</title>
    <desc>Created with Sketch.</desc>
    <defs></defs>
    <g id="Page-1" stroke="none" stroke-width="1" fill="none" fill-rule="evenodd" sketch:type="MSPage">
        <g id="YSCTW-Desktop-1a" sketch:type="MSArtboardGroup" transform="translate(-205.000000, -4696.000000)" fill="#FCA84E">
            <g id="Group" sketch:type="MSLayerGroup" transform="translate(0.000000, 4528.000000)">
                <g id="Type-something-+-Page-1" transform="translate(125.000000, 162.000000)" sketch:type="MSShapeGroup">
                    <path d="M80,10.0767327 C80,8.95336181 80.4046495,7.99307384 81.2139604,7.19584158 C82.0232713,6.39860933 82.9775187,6 84.0767327,6 C85.4537692,6 86.5590054,6.57375709 87.3924752,7.72128713 C87.7790129,7.18979896 88.2531165,6.77005177 88.814802,6.4620297 C89.3764874,6.15400764 89.9593039,6 90.5632673,6 C91.6987189,6 92.6620259,6.39559028 93.4532178,7.18678218 C94.2444097,7.97797407 94.64,8.94128109 94.64,10.0767327 C94.64,11.6349573 94.1387182,12.9153413 93.1361386,13.9179208 C92.7737601,14.2923777 92.1607463,14.8057403 91.2970792,15.4580198 C90.4334121,16.1103002 89.6331721,16.6931162 88.8963366,17.2064851 C88.1595012,17.7198541 87.7850488,17.9825742 87.7729703,17.9946535 C87.5555446,18.1033669 87.404556,18.1577228 87.32,18.1577228 C87.235444,18.1577228 87.0844554,18.1033669 86.8670297,17.9946535 C86.8428705,17.9704949 86.4653991,17.7017352 85.734604,17.1883663 C85.0038089,16.6749974 84.2065879,16.0921814 83.3429208,15.439901 C82.4792537,14.7876215 81.8662394,14.2802993 81.5038614,13.9179208 C80.5012821,12.9153413 80,11.6349573 80,10.0767327 L80,10.0767327 Z" id="icn-heart"></path>
                </g>
            </g>
        </g>
    </g>
</svg>