<?xml version="1.0" encoding="UTF-8" standalone="no"?>
<svg width="20px" height="20px" viewBox="0 0 20 20" version="1.1" xmlns="http://www.w3.org/2000/svg" xmlns:xlink="http://www.w3.org/1999/xlink" xmlns:sketch="http://www.bohemiancoding.com/sketch/ns">
    <!-- Generator: Sketch 3.5.1 (25234) - http://www.bohemiancoding.com/sketch -->
    <title>icn-comment</title>
    <desc>Created with Sketch.</desc>
    <defs></defs>
    <g id="App" stroke="none" stroke-width="1" fill="none" fill-rule="evenodd" sketch:type="MSPage">
        <g id="Smiles-1a" sketch:type="MSArtboardGroup" transform="translate(-510.000000, -864.000000)" fill="#000000">
            <g id="Group-+-Group-Copy-2" sketch:type="MSLayerGroup" transform="translate(490.000000, 80.000000)">
                <g id="Group" sketch:type="MSShapeGroup">
                    <path d="M30,784 C24.4858333,784 20,787.985797 20,792.883995 C20,795.196908 20.9808333,797.365095 22.7708333,799.024495 L20.7625,803.349184 C20.6833333,803.520877 20.7125,803.72583 20.8358333,803.863365 C20.9166667,803.952357 21.025,804 21.135,804 C21.195,804 21.2541667,803.986516 21.3108333,803.957751 L26.675,801.265495 C27.7408333,801.598094 28.8575,801.767091 30,801.767091 C35.5141667,801.767091 40,797.782192 40,792.883995 C40,787.985797 35.5141667,784 30,784" id="icn-comment"></path>
                </g>
            </g>
        </g>
    </g>
</svg>