<?xml version="1.0" encoding="UTF-8" standalone="no"?>
<svg width="92px" height="71px" viewBox="0 0 92 71" version="1.1" xmlns="http://www.w3.org/2000/svg" xmlns:xlink="http://www.w3.org/1999/xlink" xmlns:sketch="http://www.bohemiancoding.com/sketch/ns">
    <!-- Generator: Sketch 3.4.4 (17249) - http://www.bohemiancoding.com/sketch -->
    <title>icn-quote</title>
    <desc>Created with Sketch.</desc>
    <defs></defs>
    <g id="Page-1" stroke="none" stroke-width="1" fill="none" fill-rule="evenodd" sketch:type="MSPage">
        <g id="YSCTW-Desktop-1a" sketch:type="MSArtboardGroup" transform="translate(-273.000000, -1242.000000)" fill="#DEDEDE">
            <g id="Group" sketch:type="MSLayerGroup" transform="translate(0.000000, 1145.000000)">
                <g transform="translate(273.000000, 97.000000)" id="icn-quote" sketch:type="MSShapeGroup">
                    <path d="M49.966,47.859 C49.966,61.705 58.093,70.735 71.036,70.735 C83.076,70.735 91.203,62.608 91.203,50.568 C91.203,39.431 84.581,32.508 72.842,31.906 C74.949,19.866 79.765,9.933 89.397,0 L76.454,0 C58.695,16.254 49.966,31.906 49.966,47.859 L49.966,47.859 Z M0,47.859 C0,61.705 8.127,70.735 20.769,70.735 C32.809,70.735 41.237,62.608 41.237,50.568 C41.237,39.431 34.314,32.508 22.575,31.906 C24.983,19.565 29.799,10.234 39.431,0 L26.187,0 C8.729,16.254 0,31.906 0,47.859 L0,47.859 Z"></path>
                </g>
            </g>
        </g>
    </g>
</svg>